<svg width="480" height="157" viewBox="0 0 480 157" fill="none" xmlns="http://www.w3.org/2000/svg">
<path d="M119.463 50.1921C112.498 37.0866 101.246 26.7764 87.5943 20.9889C73.9528 15.2986 58.7561 14.5537 44.6249 18.8827C30.4937 23.2116 18.3138 32.343 10.1856 44.7021C2.2707 56.9458 -1.19644 71.544 0.3664 86.0452C1.975 100.339 8.53272 113.616 18.9003 123.571C20.2473 124.92 22.0791 125.149 22.9411 124.218C23.8032 123.288 23.453 121.521 22.2273 120.307L21.8367 119.969C13.1316 110.449 7.94224 98.2321 7.13116 85.3491C6.32009 72.4662 9.93615 59.6932 17.3783 49.1534C24.6667 38.8801 35.2403 31.4076 47.3482 27.9734C59.4561 24.5392 72.3721 25.3491 83.9576 30.2692C95.4714 35.2326 104.95 43.9809 110.828 55.0686C116.705 66.1564 118.63 78.9203 116.284 91.2518C113.96 103.257 107.764 114.165 98.6489 122.302C89.5336 130.439 78.0027 135.353 65.8278 136.291L65.1408 111.498C65.1229 110.875 64.9713 110.264 64.6963 109.704L65.7335 109.624C66.5012 109.624 67.0804 108.558 67.0804 107.303C67.0804 106.049 66.4878 105.024 65.7335 104.983H65.518L59.0661 104.525C57.1824 104.428 55.3224 104.06 53.5437 103.432C50.1253 102.213 47.138 100.019 44.9502 97.1194C42.8576 94.308 41.6268 90.9477 41.4077 87.448C41.4077 85.9238 41.4751 83.5228 41.5289 81.4185V79.7459C55.7526 79.9887 69.9764 79.9348 84.2001 79.5841L84.4156 85.7619C84.5324 88.7169 83.9461 91.6573 82.705 94.3408C81.3544 97.1467 79.3317 99.5745 76.817 101.408C74.3024 103.241 71.374 104.423 68.2927 104.848C67.6327 104.97 67.0939 106.036 67.0804 107.303C67.067 108.571 67.727 109.583 68.589 109.624H68.8315C72.9577 109.562 77 108.447 80.5757 106.384C84.1514 104.321 87.1421 101.378 89.2646 97.8343C91.437 94.1449 92.6632 89.9741 92.834 85.6945L93.1976 74.9035C93.2303 73.738 92.8009 72.6071 92.0033 71.7578C91.2058 70.9085 90.1048 70.41 88.9413 70.3712H88.645C84.9005 70.2633 81.1425 70.2633 77.398 70.1959C79.3218 62.9001 78.7916 55.1729 75.8894 48.2092C75.1357 47.978 74.3443 47.8955 73.5592 47.9664C72.7786 47.8962 71.9917 47.9787 71.2425 48.2092C68.3466 55.1254 67.7977 62.8022 69.68 70.061C65.0735 70.061 60.4669 69.9935 55.8604 70.061C57.7299 62.8201 57.1859 55.1659 54.3114 48.2632C53.5577 48.0319 52.7663 47.9495 51.9812 48.0204C51.2006 47.9502 50.4137 48.0327 49.6645 48.2632C46.7925 55.167 46.2533 62.8218 48.129 70.061C44.3845 70.061 40.64 70.061 36.8955 70.1689H36.6665C35.4363 70.2007 34.2689 70.7199 33.4205 71.6125C32.572 72.5052 32.1118 73.6984 32.1408 74.9304L32.3697 81.432C32.4506 83.6307 32.4371 85.5731 32.7065 88.3652C33.3775 93.5205 35.6105 98.346 39.1044 102.191C42.5427 105.933 47.0481 108.523 52.0082 109.61C54.3881 110.118 56.8291 110.277 59.2547 110.082L60.7498 109.974C60.5467 110.454 60.4283 110.965 60.3996 111.485V111.998L59.6453 139.676C59.6254 140.085 59.6871 140.493 59.8266 140.877C59.9661 141.261 60.1807 141.614 60.4579 141.914C60.7351 142.214 61.0692 142.456 61.4408 142.625C61.8124 142.795 62.214 142.888 62.6221 142.9H62.7567C77.2746 143.159 91.4373 138.395 102.855 129.412C114.428 120.229 122.426 107.279 125.459 92.8083C128.493 78.3376 126.371 63.2599 119.463 50.1921Z" fill="#FFCA08"/>
<path d="M167.064 67.9644C167.26 65.7558 167.927 63.5472 169.068 61.3386C170.208 59.13 171.56 57.323 173.124 55.9175C180.095 60.2678 186.709 62.4429 192.964 62.4429C195.701 62.4429 197.704 61.8071 198.975 60.5355C200.245 59.2639 200.881 57.6911 200.881 55.8172C200.881 52.6716 198.828 50.1953 194.723 48.3883L183.19 43.3687C178.695 41.294 175.241 38.801 172.83 35.8896C170.42 32.9783 169.214 29.2806 169.214 24.7965C169.214 21.7178 169.817 18.9069 171.022 16.3637C172.228 13.8204 173.922 11.6118 176.105 9.73788C178.287 7.86393 180.877 6.40826 183.875 5.37089C186.872 4.33353 190.195 3.81484 193.844 3.81484C201.141 3.81484 208.504 5.72226 215.932 9.5371C215.606 14.6905 213.847 18.7061 210.654 21.584C204.008 18.3045 198.144 16.6648 193.062 16.6648C190.455 16.6648 188.501 17.2672 187.198 18.4719C185.894 19.6766 185.243 21.0486 185.243 22.5879C185.243 25.198 187.165 27.3062 191.009 28.9125L202.737 34.0324C207.689 36.1741 211.387 38.9181 213.83 42.2644C216.274 45.6108 217.496 49.4926 217.496 53.9097C217.496 57.0553 216.942 59.9332 215.834 62.5433C214.726 65.1535 213.081 67.4123 210.898 69.3197C208.716 71.2271 205.995 72.7162 202.737 73.7871C199.48 74.8579 195.668 75.3933 191.302 75.3933C182.832 75.3933 174.753 72.917 167.064 67.9644ZM261.086 28.2097C265.777 33.0285 268.122 39.922 268.122 48.8902C268.122 52.9058 267.618 56.5534 266.608 59.8328C265.598 63.1122 264.132 65.9064 262.209 68.2154C260.287 70.5244 257.925 72.2979 255.124 73.5361C252.322 74.7742 249.097 75.3933 245.448 75.3933C241.799 75.3933 238.59 74.7575 235.821 73.4859C233.052 72.2143 230.706 70.424 228.784 68.115C226.862 65.806 225.412 63.0118 224.435 59.7324C223.457 56.453 222.969 52.8389 222.969 48.8902C222.969 44.8746 223.457 41.2438 224.435 37.9978C225.412 34.7519 226.846 31.9577 228.735 29.6152C230.625 27.2728 232.97 25.4657 235.772 24.1941C238.574 22.9225 241.799 22.2867 245.448 22.2867C251.898 22.2867 257.111 24.2611 261.086 28.2097ZM245.546 34.0324C244.112 34.0324 242.956 34.3838 242.076 35.0865C241.196 35.7892 240.496 36.743 239.975 37.9476C239.453 39.1523 239.095 40.5411 238.9 42.1138C238.704 43.6866 238.606 45.3765 238.606 47.1836C238.606 49.9945 238.688 52.4206 238.851 54.4619C239.014 56.5032 239.339 58.2098 239.828 59.5818C240.317 60.9538 241.001 61.9744 241.881 62.6437C242.76 63.313 243.917 63.6476 245.35 63.6476C248.217 63.6476 250.107 62.3593 251.019 59.7826C251.931 57.2059 252.387 53.5416 252.387 48.7898C252.387 43.9711 251.931 40.3068 251.019 37.7971C250.107 35.2873 248.282 34.0324 245.546 34.0324ZM295.977 62.4429H298.616C299.398 64.6515 299.789 66.8601 299.789 69.0687C299.789 71.2773 299.691 72.7162 299.496 73.3855C295.586 74.0548 292.1 74.3894 289.038 74.3894C284.607 74.3894 281.463 73.2684 279.606 71.0263C277.749 68.7843 276.821 65.2539 276.821 60.4351V0.702733L277.407 0H283.369C286.432 0 288.582 0.702732 289.82 2.1082C291.058 3.51367 291.677 5.95651 291.677 9.43671V57.7246C291.677 60.8702 293.11 62.4429 295.977 62.4429ZM348.95 66.6593C348.624 68.0648 348.005 69.5707 347.093 71.1769C346.18 72.7832 345.236 73.9544 344.258 74.6906C339.697 74.5567 336.179 72.7832 333.703 69.3699C329.468 73.3855 324.874 75.3933 319.922 75.3933C317.381 75.3933 315.166 74.975 313.276 74.1384C311.387 73.3018 309.79 72.1808 308.487 70.7754C307.184 69.3699 306.207 67.7469 305.555 65.9064C304.904 64.0659 304.578 62.1418 304.578 60.134C304.578 57.2561 305.083 54.7296 306.093 52.5545C307.103 50.3793 308.487 48.5723 310.246 47.1334C312.006 45.6944 314.058 44.6069 316.404 43.8707C318.749 43.1345 321.258 42.7664 323.929 42.7664C325.428 42.7664 326.747 42.7831 327.888 42.8166C329.028 42.85 330.022 42.9002 330.869 42.9672V41.0597C330.869 36.8433 328.751 34.7351 324.516 34.7351C321.779 34.7351 316.99 35.806 310.149 37.9476C308.194 35.6052 306.956 31.9577 306.435 27.0051C307.999 26.4027 309.741 25.8338 311.664 25.2984C313.586 24.763 315.557 24.2945 317.577 23.893C319.596 23.4914 321.584 23.1735 323.538 22.9392C325.493 22.705 327.252 22.5879 328.816 22.5879C331.097 22.5879 333.296 22.9225 335.413 23.5918C337.531 24.2611 339.388 25.2817 340.984 26.6537C342.581 28.0257 343.851 29.7993 344.796 31.9744C345.741 34.1495 346.213 36.743 346.213 39.7547V60.134C346.213 63.2126 347.125 65.3877 348.95 66.6593ZM319.434 59.13C319.434 62.2756 321.193 63.8484 324.711 63.8484C326.536 63.8484 328.588 62.878 330.869 60.9371V52.9058C329.565 52.8389 328.474 52.7887 327.594 52.7552C326.715 52.7218 326.047 52.7051 325.591 52.7051C321.486 52.7051 319.434 54.8467 319.434 59.13ZM354.716 31.0207C355.042 29.6821 355.661 28.193 356.573 26.5533C357.485 24.9136 358.397 23.7256 359.31 22.9894C365.304 23.4579 369.474 26.5031 371.82 32.125C374.296 26.1015 378.368 23.0898 384.037 23.0898C385.731 23.0898 387.881 23.3575 390.487 23.893C390.487 25.9677 390.145 28.4273 389.461 31.2717C388.777 34.1161 387.848 36.5422 386.676 38.55C385.568 38.1484 383.906 37.8138 381.691 37.5461C378.433 37.5461 375.762 39.2527 373.677 42.666V73.8875C371.527 74.289 369.002 74.4898 366.102 74.4898C363.203 74.4898 360.645 74.289 358.43 73.8875V41.4613C358.43 36.4418 357.192 32.9616 354.716 31.0207Z" fill="#FFCA08"/>
<path d="M161.026 155.362L166.194 89.828C169.055 89.314 172.436 89.057 176.337 89.057C180.238 89.057 183.651 89.314 186.577 89.828L192.331 113.439C194.606 124.105 195.809 129.919 195.939 130.883H196.622C196.882 129.277 198.085 123.462 200.23 113.439L206.082 89.828C208.942 89.314 212.323 89.057 216.224 89.057C220.125 89.057 223.538 89.314 226.464 89.828L231.633 155.362C229.617 155.876 227.131 156.133 224.172 156.133C221.214 156.133 218.792 155.972 216.907 155.651L215.346 128.859C214.891 118.194 214.631 110.773 214.566 106.597H213.981L204.326 145.821C201.986 146.206 199.304 146.399 196.281 146.399C193.257 146.399 190.575 146.206 188.235 145.821L178.677 106.597H177.995C177.995 112.315 177.735 119.736 177.215 128.859L175.752 155.651C173.866 155.972 171.444 156.133 168.486 156.133C165.528 156.133 163.041 155.876 161.026 155.362ZM280.687 136.376H255.234C255.364 139.267 256.111 141.516 257.477 143.122C258.842 144.728 261.085 145.532 264.206 145.532C265.766 145.532 267.571 145.307 269.619 144.857C271.667 144.407 274.023 143.668 276.689 142.64C278.835 144.825 280.167 147.78 280.687 151.507C275.486 155.169 269.115 157 261.573 157C257.477 157 254.047 156.357 251.284 155.073C248.521 153.788 246.278 151.989 244.555 149.676C242.832 147.363 241.613 144.632 240.898 141.484C240.183 138.336 239.825 134.898 239.825 131.172C239.825 127.574 240.264 124.249 241.142 121.197C242.019 118.146 243.352 115.495 245.14 113.247C246.928 110.998 249.204 109.231 251.967 107.946C254.73 106.661 257.964 106.019 261.67 106.019C264.791 106.019 267.603 106.533 270.106 107.561C272.609 108.589 274.739 110.002 276.494 111.801C278.249 113.6 279.598 115.752 280.541 118.258C281.484 120.764 281.955 123.494 281.955 126.45C281.955 130.369 281.533 133.678 280.687 136.376ZM255.136 125.968H268.009V124.908C268.009 122.531 267.473 120.571 266.4 119.029C265.327 117.487 263.718 116.716 261.573 116.716C259.492 116.716 257.948 117.439 256.94 118.884C255.933 120.33 255.331 122.691 255.136 125.968ZM319.697 107.368C320.087 109.167 320.282 110.966 320.282 112.765C320.282 114.564 320.087 116.331 319.697 118.065L308.092 117.873V140.038C308.092 143.058 309.522 144.568 312.383 144.568H317.844C318.689 146.881 319.112 149.001 319.112 150.928C319.112 152.856 318.982 154.237 318.722 155.073C313.911 155.715 309.49 156.036 305.459 156.036C297.267 156.036 293.171 151.571 293.171 142.64V117.969L285.564 118.065C285.109 116.459 284.881 114.708 284.881 112.813C284.881 110.918 285.109 109.103 285.564 107.368L293.171 107.561V101.971C293.171 98.6943 293.804 96.3653 295.072 94.9839C296.34 93.6026 298.469 92.9119 301.46 92.9119H307.409L308.092 93.5865V107.561L319.697 107.368ZM324.866 114.403C325.191 113.118 325.809 111.689 326.719 110.114C327.629 108.54 328.539 107.4 329.449 106.693C335.431 107.143 339.592 110.066 341.933 115.463C344.403 109.681 348.467 106.79 354.123 106.79C355.814 106.79 357.959 107.047 360.56 107.561C360.56 109.552 360.218 111.913 359.536 114.644C358.853 117.375 357.926 119.704 356.756 121.631C355.651 121.246 353.993 120.924 351.782 120.667C348.532 120.667 345.866 122.306 343.785 125.582V155.554C341.64 155.94 339.121 156.133 336.227 156.133C333.334 156.133 330.782 155.94 328.572 155.554V124.426C328.572 119.607 327.336 116.266 324.866 114.403ZM386.013 118.547V155.554C384.908 155.747 383.705 155.892 382.405 155.988C381.105 156.084 379.772 156.133 378.407 156.133C377.041 156.133 375.692 156.084 374.359 155.988C373.026 155.892 371.807 155.747 370.702 155.554V123.655C370.702 119.928 369.174 118.065 366.118 118.065H364.656C364.266 116.845 364.07 115.142 364.07 112.957C364.07 110.837 364.266 109.038 364.656 107.561C366.346 107.432 367.906 107.32 369.337 107.223C370.767 107.127 372.067 107.079 373.238 107.079H375.383C378.699 107.079 381.3 108.107 383.185 110.163C385.071 112.219 386.013 115.013 386.013 118.547ZM368.947 88.0932C370.832 87.0653 373.27 86.5513 376.261 86.5513C379.317 86.5513 381.69 87.0653 383.38 88.0932C384.16 89.828 384.55 91.6912 384.55 93.6829C384.55 95.6746 384.16 97.5378 383.38 99.2725C381.495 100.236 379.024 100.718 375.968 100.718C372.913 100.718 370.572 100.236 368.947 99.2725C368.167 97.5378 367.776 95.6746 367.776 93.6829C367.776 91.6912 368.167 89.828 368.947 88.0932ZM421.805 128.763V127.51C421.805 123.912 421.415 121.294 420.634 119.655C419.854 118.017 418.391 117.198 416.246 117.198C413.97 117.198 412.377 118.306 411.467 120.523C410.557 122.739 410.102 126.418 410.102 131.557C410.102 134.127 410.281 136.28 410.638 138.014C410.996 139.749 411.516 141.147 412.199 142.207C412.881 143.267 413.743 144.038 414.783 144.52C415.823 145.002 417.059 145.242 418.489 145.242C419.984 145.242 421.642 144.921 423.463 144.279C425.283 143.636 427.234 142.608 429.314 141.195C429.899 141.516 430.501 141.982 431.118 142.592C431.736 143.203 432.305 143.893 432.825 144.664C433.345 145.435 433.8 146.254 434.19 147.122C434.58 147.989 434.873 148.808 435.068 149.579C432.922 151.828 430.127 153.627 426.681 154.976C423.235 156.325 419.724 157 416.148 157C409.192 157 403.86 154.751 400.154 150.254C396.448 145.756 394.596 139.364 394.596 131.076C394.596 126.835 395.197 123.141 396.4 119.993C397.602 116.845 399.195 114.242 401.178 112.187C403.161 110.131 405.437 108.589 408.005 107.561C410.573 106.533 413.255 106.019 416.051 106.019C418.911 106.019 421.528 106.404 423.901 107.175C426.275 107.946 428.323 109.038 430.045 110.452C431.768 111.865 433.101 113.552 434.044 115.511C434.987 117.471 435.458 119.639 435.458 122.017C435.458 124.715 434.662 126.61 433.069 127.703C431.476 128.795 429.509 129.341 427.169 129.341C425.218 129.341 423.43 129.148 421.805 128.763ZM439.944 152.278C440.009 150.607 440.448 148.776 441.261 146.784C442.073 144.793 443.032 143.219 444.138 142.062C449.339 144.761 453.858 146.11 457.693 146.11C459.514 146.11 460.912 145.805 461.887 145.194C462.862 144.584 463.35 143.765 463.35 142.737C463.35 140.809 461.855 139.364 458.864 138.4L453.5 136.376C445.373 133.421 441.309 128.602 441.309 121.92C441.309 117.037 443.016 113.166 446.43 110.307C449.843 107.448 454.443 106.019 460.229 106.019C463.09 106.019 466.243 106.42 469.689 107.223C473.135 108.026 475.963 108.974 478.174 110.066C478.304 111.865 477.946 113.841 477.101 115.993C476.256 118.146 475.215 119.671 473.98 120.571C468.519 118.13 463.968 116.909 460.327 116.909C459.026 116.909 458.035 117.198 457.352 117.776C456.669 118.354 456.328 119.093 456.328 119.993C456.328 121.535 457.564 122.755 460.034 123.655L466.081 125.775C474.728 128.795 479.051 133.967 479.051 141.291C479.051 146.11 477.263 149.933 473.687 152.76C470.112 155.587 465.008 157 458.376 157C451.745 157 445.601 155.426 439.944 152.278Z" fill="#FFCA08"/>
</svg>
