<svg width="370" height="57" viewBox="0 0 370 57" fill="none" xmlns="http://www.w3.org/2000/svg">
<g clip-path="url(#clip0_2437_30)">
<path d="M53.182 15.1541C50.0812 9.32819 45.0724 4.74493 38.9949 2.17216C32.922 -0.357379 26.1568 -0.688514 19.8659 1.23586C13.575 3.16023 8.15284 7.21948 4.53438 12.7136C1.01086 18.1564 -0.532626 24.6458 0.163112 31.0921C0.879221 37.4461 3.79856 43.3484 8.41396 47.7737C9.01359 48.3733 9.82908 48.4753 10.2128 48.0615C10.5966 47.6478 10.4407 46.8623 9.89504 46.3226L9.72115 46.1727C5.84587 41.9406 3.53569 36.5097 3.17462 30.7827C2.81355 25.0557 4.42333 19.3777 7.73639 14.6923C10.981 10.1255 15.6881 6.80368 21.0783 5.27704C26.4684 3.75039 32.2183 4.11045 37.3759 6.29758C42.5015 8.50403 46.7212 12.3929 49.3377 17.3219C51.9543 22.2508 52.8112 27.9249 51.7669 33.4067C50.7322 38.7433 47.9741 43.5926 43.9161 47.2096C39.8582 50.8267 34.7249 53.0114 29.3049 53.4282L28.9991 42.407C28.9911 42.1301 28.9237 41.8581 28.8012 41.6095L29.263 41.5736C29.6047 41.5736 29.8626 41.0999 29.8626 40.5422C29.8626 39.9846 29.5987 39.5288 29.263 39.5109H29.167L26.2948 39.307C25.4562 39.2642 24.6282 39.1006 23.8363 38.8213C22.3146 38.2793 20.9847 37.3038 20.0107 36.015C19.0791 34.7652 18.5312 33.2715 18.4337 31.7157C18.4337 31.0381 18.4637 29.9708 18.4877 29.0354V28.2919C24.8197 28.3998 31.1518 28.3758 37.4838 28.2199L37.5798 30.9662C37.6318 32.2798 37.3708 33.5869 36.8182 34.7798C36.217 36.0272 35.3165 37.1064 34.1971 37.9214C33.0776 38.7364 31.774 39.2618 30.4022 39.4509C30.1084 39.5049 29.8686 39.9786 29.8626 40.5422C29.8566 41.1059 30.1504 41.5556 30.5342 41.5736H30.6421C32.479 41.5464 34.2785 41.0507 35.8703 40.1336C37.4622 39.2165 38.7935 37.9083 39.7384 36.3328C40.7055 34.6927 41.2514 32.8387 41.3274 30.9362L41.4893 26.1392C41.5039 25.6211 41.3127 25.1184 40.9577 24.7408C40.6026 24.3633 40.1125 24.1417 39.5945 24.1245H39.4626C37.7956 24.0765 36.1227 24.0765 34.4557 24.0465C35.3121 20.8033 35.0761 17.3682 33.7841 14.2726C33.4486 14.1698 33.0963 14.1332 32.7468 14.1647C32.3992 14.1335 32.049 14.1701 31.7154 14.2726C30.4263 17.3471 30.1819 20.7597 31.0199 23.9865C28.9691 23.9865 26.9184 23.9566 24.8677 23.9865C25.6999 20.7677 25.4578 17.3651 24.1781 14.2966C23.8426 14.1938 23.4903 14.1571 23.1408 14.1887C22.7932 14.1575 22.443 14.1941 22.1094 14.2966C20.8309 17.3656 20.5908 20.7684 21.4258 23.9865C19.7589 23.9865 18.0919 23.9865 16.425 24.0345H16.323C15.7754 24.0487 15.2557 24.2794 14.878 24.6763C14.5003 25.0731 14.2954 25.6035 14.3083 26.1512L14.4102 29.0414C14.4462 30.0188 14.4402 30.8822 14.5601 32.1235C14.8589 34.4152 15.8529 36.5603 17.4084 38.2696C18.939 39.9329 20.9447 41.0844 23.1528 41.5676C24.2123 41.7933 25.2989 41.864 26.3788 41.7774L27.0443 41.7295C26.9539 41.9426 26.9012 42.1699 26.8884 42.4011V42.6289L26.5526 54.9332C26.5438 55.1148 26.5712 55.2962 26.6333 55.467C26.6955 55.6378 26.791 55.7945 26.9144 55.928C27.0378 56.0614 27.1865 56.1689 27.352 56.2442C27.5174 56.3194 27.6962 56.361 27.8778 56.3663H27.9378C34.4008 56.4813 40.7057 54.3634 45.7886 50.3701C50.9407 46.2882 54.5009 40.5314 55.8514 34.0986C57.2019 27.6658 56.2575 20.9632 53.182 15.1541Z" fill="#F0BA3E"/>
<path d="M76 43.1288C76.1008 42.0198 76.4453 40.9107 77.0334 39.8017C77.6216 38.6926 78.3189 37.7852 79.1255 37.0794C82.7216 39.2639 86.1328 40.3562 89.3591 40.3562C90.7707 40.3562 91.8041 40.0369 92.4595 39.3984C93.1148 38.7598 93.4425 37.97 93.4425 37.029C93.4425 35.4494 92.3839 34.2059 90.2666 33.2985L84.318 30.7779C81.999 29.7361 80.2178 28.4842 78.9743 27.0222C77.7308 25.5603 77.1091 23.7035 77.1091 21.4517C77.1091 19.9058 77.4199 18.4942 78.0417 17.2171C78.6634 15.94 79.5372 14.831 80.6631 13.89C81.789 12.9489 83.1249 12.218 84.6708 11.697C86.2168 11.1761 87.9308 10.9157 89.8129 10.9157C93.5769 10.9157 97.3746 11.8735 101.206 13.7891C101.038 16.3769 100.13 18.3934 98.4837 19.8386C95.0557 18.1918 92.031 17.3684 89.4096 17.3684C88.0652 17.3684 87.057 17.6708 86.3848 18.2758C85.7127 18.8807 85.3766 19.5697 85.3766 20.3427C85.3766 21.6534 86.368 22.712 88.3509 23.5186L94.4003 26.0896C96.9545 27.1651 98.8618 28.543 100.122 30.2234C101.382 31.9038 102.013 33.8531 102.013 36.0712C102.013 37.6507 101.727 39.0959 101.156 40.4066C100.584 41.7173 99.7356 42.8516 98.6097 43.8094C97.4839 44.7672 96.0807 45.515 94.4003 46.0527C92.7199 46.5905 90.7539 46.8593 88.5021 46.8593C84.1331 46.8593 79.9657 45.6158 76 43.1288ZM124.496 23.1657C126.916 25.5855 128.126 29.0471 128.126 33.5506C128.126 35.5671 127.865 37.3987 127.344 39.0455C126.824 40.6923 126.067 42.0954 125.076 43.2549C124.085 44.4143 122.866 45.3049 121.421 45.9267C119.976 46.5484 118.312 46.8593 116.43 46.8593C114.548 46.8593 112.893 46.54 111.465 45.9015C110.036 45.2629 108.827 44.3639 107.835 43.2045C106.844 42.045 106.096 40.6419 105.592 38.9951C105.088 37.3483 104.836 35.5334 104.836 33.5506C104.836 31.5341 105.088 29.7109 105.592 28.0809C106.096 26.4509 106.835 25.0478 107.81 23.8715C108.785 22.6952 109.994 21.7878 111.44 21.1493C112.885 20.5107 114.548 20.1914 116.43 20.1914C119.758 20.1914 122.446 21.1829 124.496 23.1657ZM116.481 26.0896C115.741 26.0896 115.145 26.2661 114.691 26.619C114.237 26.9718 113.876 27.4507 113.607 28.0557C113.338 28.6606 113.154 29.358 113.053 30.1478C112.952 30.9376 112.901 31.7862 112.901 32.6936C112.901 34.1051 112.943 35.3234 113.028 36.3484C113.112 37.3735 113.28 38.2305 113.532 38.9194C113.784 39.6084 114.137 40.1209 114.59 40.457C115.044 40.7931 115.641 40.9611 116.38 40.9611C117.859 40.9611 118.833 40.3142 119.304 39.0203C119.774 37.7264 120.01 35.8863 120.01 33.5002C120.01 31.0804 119.774 29.2404 119.304 27.9801C118.833 26.7198 117.892 26.0896 116.481 26.0896ZM142.493 40.3562H143.854C144.258 41.4652 144.459 42.5743 144.459 43.6834C144.459 44.7924 144.409 45.515 144.308 45.8511C142.292 46.1872 140.494 46.3552 138.914 46.3552C136.629 46.3552 135.007 45.7923 134.049 44.6664C133.091 43.5405 132.613 41.7677 132.613 39.3479V9.35288L132.915 9H135.99C137.57 9 138.679 9.35288 139.317 10.0586C139.956 10.7644 140.275 11.9911 140.275 13.7387V37.9868C140.275 39.5664 141.015 40.3562 142.493 40.3562ZM169.816 42.4735C169.648 43.1792 169.329 43.9354 168.859 44.742C168.388 45.5486 167.901 46.1367 167.397 46.5064C165.044 46.4392 163.229 45.5486 161.952 43.8346C159.768 45.8511 157.398 46.8593 154.844 46.8593C153.533 46.8593 152.391 46.6493 151.416 46.2292C150.442 45.8091 149.618 45.2461 148.946 44.5404C148.274 43.8346 147.77 43.0196 147.434 42.0954C147.098 41.1712 146.93 40.2049 146.93 39.1967C146.93 37.7516 147.19 36.4829 147.711 35.3906C148.232 34.2984 148.946 33.3909 149.853 32.6684C150.761 31.9458 151.819 31.3997 153.029 31.03C154.239 30.6603 155.533 30.4755 156.911 30.4755C157.684 30.4755 158.365 30.4839 158.953 30.5007C159.541 30.5175 160.053 30.5427 160.49 30.5763V29.6185C160.49 27.5012 159.398 26.4425 157.214 26.4425C155.802 26.4425 153.332 26.9802 149.803 28.0557C148.795 26.8794 148.156 25.0478 147.887 22.5608C148.694 22.2583 149.593 21.9727 150.584 21.7038C151.576 21.4349 152.592 21.1997 153.634 20.998C154.676 20.7964 155.701 20.6367 156.709 20.5191C157.718 20.4015 158.625 20.3427 159.432 20.3427C160.608 20.3427 161.742 20.5107 162.834 20.8468C163.927 21.1829 164.885 21.6954 165.708 22.3844C166.531 23.0733 167.187 23.9639 167.674 25.0562C168.161 26.1484 168.405 27.4507 168.405 28.9631V39.1967C168.405 40.7427 168.875 41.8349 169.816 42.4735ZM154.592 38.6926C154.592 40.2722 155.5 41.0619 157.314 41.0619C158.255 41.0619 159.314 40.5746 160.49 39.6V35.5671C159.818 35.5334 159.255 35.5082 158.802 35.4914C158.348 35.4746 158.003 35.4662 157.768 35.4662C155.651 35.4662 154.592 36.5417 154.592 38.6926ZM172.791 24.5773C172.959 23.9051 173.278 23.1573 173.749 22.3339C174.219 21.5105 174.69 20.914 175.16 20.5443C178.252 20.7796 180.403 22.3087 181.613 25.1318C182.89 22.1071 184.99 20.5947 187.914 20.5947C188.788 20.5947 189.897 20.7292 191.242 20.998C191.242 22.0399 191.065 23.275 190.712 24.7033C190.359 26.1316 189.88 27.3499 189.275 28.3582C188.704 28.1565 187.847 27.9885 186.704 27.854C185.024 27.854 183.646 28.711 182.571 30.425V46.1031C181.462 46.3048 180.159 46.4056 178.664 46.4056C177.168 46.4056 175.849 46.3048 174.706 46.1031V29.8201C174.706 27.2995 174.068 25.5519 172.791 24.5773ZM205.155 46.0023L207.827 11.7222C209.306 11.4534 211.053 11.3189 213.07 11.3189C215.086 11.3189 216.851 11.4534 218.363 11.7222L221.337 24.0732C222.514 29.6521 223.135 32.6936 223.203 33.1977H223.556C223.69 32.3575 224.312 29.316 225.421 24.0732L228.446 11.7222C229.924 11.4534 231.672 11.3189 233.688 11.3189C235.705 11.3189 237.469 11.4534 238.982 11.7222L241.653 46.0023C240.612 46.2712 239.326 46.4056 237.797 46.4056C236.268 46.4056 235.016 46.3216 234.041 46.1535L233.235 32.1391C232.999 26.5601 232.865 22.6784 232.831 20.4939H232.529L227.538 41.0115C226.328 41.2132 224.942 41.314 223.379 41.314C221.816 41.314 220.43 41.2132 219.22 41.0115L214.28 20.4939H213.927C213.927 23.485 213.792 27.3667 213.524 32.1391L212.767 46.1535C211.793 46.3216 210.541 46.4056 209.012 46.4056C207.483 46.4056 206.197 46.2712 205.155 46.0023ZM267.011 36.0712H253.853C253.92 37.5835 254.307 38.7598 255.013 39.6C255.718 40.4402 256.878 40.8603 258.491 40.8603C259.298 40.8603 260.23 40.7427 261.289 40.5074C262.347 40.2722 263.566 39.8857 264.944 39.3479C266.053 40.4906 266.742 42.0366 267.011 43.9858C264.322 45.9015 261.028 46.8593 257.13 46.8593C255.013 46.8593 253.24 46.5232 251.811 45.8511C250.383 45.1789 249.224 44.2379 248.333 43.028C247.442 41.8181 246.812 40.3898 246.443 38.743C246.073 37.0962 245.888 35.2982 245.888 33.3489C245.888 31.4669 246.115 29.7277 246.569 28.1313C247.022 26.5349 247.711 25.1486 248.635 23.9723C249.56 22.796 250.736 21.8718 252.164 21.1997C253.593 20.5275 255.265 20.1914 257.18 20.1914C258.793 20.1914 260.247 20.4603 261.541 20.998C262.835 21.5358 263.935 22.2751 264.843 23.2161C265.75 24.1572 266.448 25.283 266.935 26.5937C267.422 27.9045 267.666 29.3328 267.666 30.8788C267.666 32.9288 267.447 34.6596 267.011 36.0712ZM253.803 30.6267H260.457V30.0722C260.457 28.8287 260.18 27.8036 259.625 26.997C259.071 26.1904 258.239 25.7872 257.13 25.7872C256.054 25.7872 255.256 26.1652 254.735 26.9214C254.214 27.6776 253.903 28.9127 253.803 30.6267ZM287.175 20.8972C287.377 21.8382 287.478 22.7792 287.478 23.7203C287.478 24.6613 287.377 25.5855 287.175 26.4929L281.176 26.3921V37.9868C281.176 39.5664 281.916 40.3562 283.394 40.3562H286.217C286.654 41.5661 286.873 42.6751 286.873 43.6834C286.873 44.6916 286.806 45.4142 286.671 45.8511C284.184 46.1872 281.899 46.3552 279.815 46.3552C275.581 46.3552 273.463 44.0194 273.463 39.3479V26.4425L269.531 26.4929C269.296 25.6527 269.178 24.7369 269.178 23.7455C269.178 22.754 269.296 21.8046 269.531 20.8972L273.463 20.998V18.0741C273.463 16.3601 273.791 15.1418 274.446 14.4193C275.102 13.6967 276.202 13.3354 277.748 13.3354H280.823L281.176 13.6883V20.998L287.175 20.8972ZM289.847 24.5773C290.015 23.9051 290.334 23.1573 290.805 22.3339C291.275 21.5105 291.746 20.914 292.217 20.5443C295.308 20.7796 297.459 22.3087 298.669 25.1318C299.946 22.1071 302.047 20.5947 304.971 20.5947C305.845 20.5947 306.954 20.7292 308.298 20.998C308.298 22.0399 308.121 23.275 307.769 24.7033C307.416 26.1316 306.937 27.3499 306.332 28.3582C305.761 28.1565 304.904 27.9885 303.761 27.854C302.08 27.854 300.703 28.711 299.627 30.425V46.1031C298.518 46.3048 297.216 46.4056 295.72 46.4056C294.225 46.4056 292.905 46.3048 291.763 46.1031V29.8201C291.763 27.2995 291.124 25.5519 289.847 24.5773ZM321.455 26.745V46.1031C320.884 46.204 320.262 46.2796 319.59 46.33C318.918 46.3804 318.229 46.4056 317.523 46.4056C316.818 46.4056 316.12 46.3804 315.431 46.33C314.742 46.2796 314.112 46.204 313.541 46.1031V29.4168C313.541 27.4676 312.751 26.4929 311.171 26.4929H310.415C310.214 25.8544 310.113 24.9638 310.113 23.8211C310.113 22.712 310.214 21.771 310.415 20.998C311.289 20.9308 312.096 20.872 312.835 20.8216C313.574 20.7712 314.246 20.746 314.851 20.746H315.961C317.675 20.746 319.019 21.2837 319.993 22.3591C320.968 23.4346 321.455 24.8965 321.455 26.745ZM312.633 10.8148C313.608 10.2771 314.868 10.0082 316.414 10.0082C317.994 10.0082 319.22 10.2771 320.094 10.8148C320.498 11.7222 320.699 12.6969 320.699 13.7387C320.699 14.7806 320.498 15.7552 320.094 16.6626C319.12 17.1667 317.843 17.4188 316.263 17.4188C314.683 17.4188 313.474 17.1667 312.633 16.6626C312.23 15.7552 312.028 14.7806 312.028 13.7387C312.028 12.6969 312.23 11.7222 312.633 10.8148ZM339.957 32.0886V31.4333C339.957 29.5512 339.755 28.1817 339.352 27.3247C338.948 26.4677 338.192 26.0392 337.083 26.0392C335.907 26.0392 335.083 26.6189 334.613 27.7784C334.142 28.9379 333.907 30.8619 333.907 33.5506C333.907 34.8949 334 36.0208 334.184 36.9282C334.369 37.8356 334.638 38.5666 334.991 39.1211C335.344 39.6756 335.789 40.0789 336.327 40.331C336.865 40.583 337.503 40.7091 338.243 40.7091C339.016 40.7091 339.873 40.541 340.814 40.2049C341.755 39.8689 342.763 39.3311 343.838 38.5918C344.141 38.7598 344.452 39.0035 344.771 39.3227C345.09 39.642 345.384 40.0033 345.653 40.4066C345.922 40.8099 346.157 41.2384 346.359 41.6921C346.561 42.1458 346.712 42.5743 346.813 42.9776C345.704 44.1539 344.258 45.0949 342.477 45.8007C340.696 46.5064 338.881 46.8593 337.033 46.8593C333.437 46.8593 330.681 45.683 328.765 43.3305C326.849 40.9779 325.892 37.6339 325.892 33.2985C325.892 31.0804 326.203 29.1479 326.824 27.5012C327.446 25.8544 328.269 24.4932 329.294 23.4178C330.319 22.3423 331.496 21.5358 332.823 20.998C334.151 20.4603 335.537 20.1914 336.982 20.1914C338.461 20.1914 339.814 20.3931 341.04 20.7964C342.267 21.1997 343.326 21.771 344.216 22.5104C345.107 23.2498 345.796 24.132 346.283 25.157C346.771 26.182 347.014 27.3163 347.014 28.5598C347.014 29.9713 346.603 30.9628 345.779 31.5341C344.956 32.1054 343.939 32.3911 342.729 32.3911C341.721 32.3911 340.797 32.2903 339.957 32.0886ZM349.333 44.3891C349.367 43.5153 349.594 42.5575 350.014 41.5157C350.434 40.4738 350.93 39.6504 351.501 39.0455C354.19 40.457 356.525 41.1628 358.508 41.1628C359.449 41.1628 360.172 41.0031 360.676 40.6839C361.18 40.3646 361.432 39.9361 361.432 39.3984C361.432 38.3901 360.659 37.6339 359.113 37.1298L356.34 36.0712C352.139 34.5252 350.039 32.0046 350.039 28.5094C350.039 25.9552 350.921 23.9303 352.686 22.4348C354.45 20.9392 356.828 20.1914 359.819 20.1914C361.298 20.1914 362.928 20.4015 364.709 20.8216C366.49 21.2417 367.952 21.7374 369.095 22.3087C369.162 23.2498 368.977 24.2832 368.54 25.4091C368.103 26.5349 367.565 27.3331 366.927 27.8036C364.104 26.5265 361.751 25.888 359.869 25.888C359.197 25.888 358.685 26.0392 358.332 26.3417C357.979 26.6442 357.802 27.0306 357.802 27.5012C357.802 28.3077 358.441 28.9463 359.718 29.4168L362.844 30.5259C367.313 32.1054 369.548 34.8109 369.548 38.6422C369.548 41.1628 368.624 43.1624 366.776 44.6412C364.927 46.1199 362.289 46.8593 358.861 46.8593C355.433 46.8593 352.257 46.0359 349.333 44.3891Z" fill="#F0BA3E"/>
</g>
<defs>
<clipPath id="clip0_2437_30">
<rect width="369.548" height="56.3708" fill="white"/>
</clipPath>
</defs>
</svg>
