<svg width="184" height="28" viewBox="0 0 184 28" fill="none" xmlns="http://www.w3.org/2000/svg">
<g clip-path="url(#clip0_2318_38)">
<path d="M26.4796 7.52719C24.9357 4.63342 22.4418 2.35686 19.4157 1.07894C16.392 -0.177514 13.0236 -0.341992 9.89134 0.613865C6.75908 1.56972 4.05934 3.586 2.25769 6.31498C0.503312 9.01847 -0.265197 12.2418 0.0812145 15.4438C0.437769 18.5999 1.89132 21.5316 4.18935 23.7297C4.48791 24.0276 4.89395 24.0782 5.08503 23.8727C5.2761 23.6672 5.19848 23.277 4.92679 23.009L4.84021 22.9345C2.91069 20.8324 1.76044 18.1348 1.58066 15.2901C1.40088 12.4455 2.2024 9.6251 3.85199 7.29785C5.46751 5.02943 7.8112 3.37947 10.495 2.62116C13.1788 1.86286 16.0417 2.04171 18.6096 3.12808C21.1617 4.22405 23.2627 6.15572 24.5655 8.60397C25.8683 11.0522 26.295 13.8706 25.775 16.5935C25.2598 19.2442 23.8865 21.6529 21.8661 23.4496C19.8456 25.2462 17.2897 26.3314 14.5911 26.5384L14.4388 21.0641C14.4348 20.9265 14.4012 20.7914 14.3403 20.6679L14.5702 20.6501C14.7403 20.6501 14.8687 20.4148 14.8687 20.1378C14.8687 19.8608 14.7374 19.6344 14.5702 19.6255H14.5224L13.0923 19.5242C12.6748 19.5029 12.2625 19.4217 11.8682 19.283C11.1105 19.0138 10.4484 18.5292 9.96344 17.8891C9.49961 17.2683 9.22679 16.5263 9.17824 15.7536C9.17824 15.417 9.19317 14.8868 9.20511 14.4222V14.0529C12.3579 14.1065 15.5106 14.0946 18.6634 14.0171L18.7112 15.3813C18.7371 16.0337 18.6071 16.683 18.332 17.2755C18.0326 17.8951 17.5843 18.4312 17.0269 18.836C16.4695 19.2408 15.8204 19.5018 15.1374 19.5957C14.9911 19.6225 14.8717 19.8578 14.8687 20.1378C14.8657 20.4177 15.012 20.6411 15.2031 20.6501H15.2569C16.1715 20.6365 17.0675 20.3904 17.86 19.9348C18.6526 19.4793 19.3155 18.8295 19.786 18.0469C20.2675 17.2323 20.5393 16.3113 20.5771 15.3664L20.6577 12.9836C20.665 12.7263 20.5698 12.4766 20.393 12.2891C20.2162 12.1015 19.9722 11.9914 19.7143 11.9829H19.6486C18.8186 11.9591 17.9857 11.9591 17.1557 11.9442C17.5821 10.3332 17.4646 8.62699 16.8213 7.08936C16.6542 7.0383 16.4788 7.0201 16.3048 7.03575C16.1318 7.02026 15.9573 7.03847 15.7913 7.08936C15.1494 8.6165 15.0277 10.3116 15.4449 11.9144C14.4239 11.9144 13.4028 11.8995 12.3818 11.9144C12.7961 10.3156 12.6756 8.62545 12.0384 7.10128C11.8713 7.05022 11.6959 7.03201 11.5219 7.04767C11.3489 7.03217 11.1745 7.05038 11.0084 7.10128C10.3718 8.62568 10.2523 10.3159 10.668 11.9144C9.83805 11.9144 9.00806 11.9144 8.17807 11.9382H8.12732C7.85464 11.9452 7.59589 12.0599 7.40782 12.257C7.21976 12.4541 7.11775 12.7176 7.12417 12.9896L7.17492 14.4252C7.19284 14.9107 7.18985 15.3396 7.24956 15.9561C7.3983 17.0944 7.89325 18.1599 8.66771 19.009C9.4298 19.8351 10.4285 20.4071 11.5279 20.6471C12.0554 20.7592 12.5965 20.7943 13.1341 20.7513L13.4655 20.7275C13.4205 20.8334 13.3942 20.9462 13.3879 21.0611V21.1743L13.2207 27.286C13.2163 27.3761 13.23 27.4663 13.2609 27.5511C13.2918 27.6359 13.3394 27.7138 13.4008 27.7801C13.4622 27.8463 13.5363 27.8997 13.6187 27.9371C13.701 27.9745 13.7901 27.9951 13.8805 27.9978H13.9104C17.1283 28.0549 20.2675 27.0029 22.7984 25.0194C25.3636 22.9919 27.1363 20.1324 27.8087 16.9372C28.4811 13.7419 28.0109 10.4127 26.4796 7.52719Z" fill="white"/>
<path d="M37.8398 21.4226C37.89 20.8717 38.0616 20.3208 38.3544 19.7699C38.6472 19.219 38.9945 18.7683 39.3961 18.4178C41.1866 19.5028 42.885 20.0454 44.4914 20.0454C45.1942 20.0454 45.7088 19.8868 46.0351 19.5696C46.3614 19.2524 46.5246 18.8601 46.5246 18.3927C46.5246 17.6081 45.9974 16.9905 44.9432 16.5397L41.9814 15.2877C40.8268 14.7702 39.9399 14.1484 39.3208 13.4223C38.7016 12.6961 38.3921 11.7738 38.3921 10.6553C38.3921 9.88742 38.5468 9.18629 38.8564 8.55194C39.166 7.91759 39.6011 7.36671 40.1616 6.89929C40.7222 6.43188 41.3874 6.06879 42.1571 5.81005C42.9268 5.5513 43.7803 5.42192 44.7173 5.42192C46.5915 5.42192 48.4824 5.89769 50.39 6.84921C50.3063 8.13461 49.8545 9.13621 49.0346 9.85403C47.3278 9.03605 45.8217 8.62706 44.5165 8.62706C43.8472 8.62706 43.3452 8.7773 43.0105 9.07779C42.6758 9.37827 42.5085 9.72048 42.5085 10.1044C42.5085 10.7555 43.0021 11.2813 43.9894 11.682L47.0015 12.959C48.2732 13.4932 49.2228 14.1776 49.8503 15.0123C50.4779 15.847 50.7916 16.8152 50.7916 17.917C50.7916 18.7015 50.6494 19.4194 50.3649 20.0704C50.0804 20.7215 49.6579 21.2849 49.0973 21.7606C48.5368 22.2364 47.8381 22.6078 47.0015 22.8749C46.1648 23.142 45.1859 23.2755 44.0647 23.2755C41.8894 23.2755 39.8144 22.6579 37.8398 21.4226ZM61.9864 11.5067C63.1912 12.7086 63.7936 14.428 63.7936 16.6649C63.7936 17.6666 63.6639 18.5763 63.4045 19.3943C63.1452 20.2123 62.7687 20.9093 62.275 21.4852C61.7814 22.0611 61.1748 22.5035 60.4552 22.8123C59.7357 23.1211 58.9074 23.2755 57.9703 23.2755C57.0332 23.2755 56.2091 23.117 55.4979 22.7998C54.7867 22.4826 54.1843 22.0361 53.6907 21.4601C53.1971 20.8842 52.8247 20.1873 52.5737 19.3693C52.3227 18.5513 52.1972 17.6499 52.1972 16.6649C52.1972 15.6633 52.3227 14.7577 52.5737 13.9481C52.8247 13.1385 53.1929 12.4415 53.6781 11.8572C54.1634 11.273 54.7658 10.8222 55.4854 10.5051C56.2049 10.1879 57.0332 10.0293 57.9703 10.0293C59.6269 10.0293 60.9656 10.5218 61.9864 11.5067ZM57.9954 12.959C57.6273 12.959 57.3302 13.0466 57.1043 13.2219C56.8784 13.3972 56.6986 13.6351 56.5647 13.9356C56.4308 14.2361 56.3388 14.5824 56.2886 14.9747C56.2384 15.367 56.2133 15.7885 56.2133 16.2393C56.2133 16.9404 56.2342 17.5455 56.276 18.0547C56.3179 18.5638 56.4015 18.9895 56.527 19.3317C56.6525 19.6739 56.8282 19.9285 57.0541 20.0954C57.28 20.2624 57.5771 20.3458 57.9452 20.3458C58.6815 20.3458 59.1668 20.0245 59.401 19.3818C59.6353 18.7391 59.7524 17.8251 59.7524 16.6399C59.7524 15.438 59.6353 14.524 59.401 13.898C59.1668 13.272 58.6982 12.959 57.9954 12.959ZM70.9472 20.0454H71.6249C71.8257 20.5963 71.9261 21.1471 71.9261 21.698C71.9261 22.2489 71.901 22.6078 71.8508 22.7747C70.8468 22.9417 69.9515 23.0251 69.1651 23.0251C68.0272 23.0251 67.2198 22.7455 66.7429 22.1863C66.266 21.6271 66.0275 20.7465 66.0275 19.5446V4.64568L66.1781 4.4704H67.7092C68.4957 4.4704 69.0479 4.64568 69.3659 4.99624C69.6838 5.3468 69.8428 5.95611 69.8428 6.82417V18.8685C69.8428 19.6531 70.2109 20.0454 70.9472 20.0454ZM84.5516 21.0971C84.4679 21.4476 84.3089 21.8232 84.0746 22.2239C83.8404 22.6245 83.5977 22.9166 83.3467 23.1003C82.1754 23.0669 81.2718 22.6245 80.6359 21.7731C79.5482 22.7747 78.3685 23.2755 77.0968 23.2755C76.4441 23.2755 75.8752 23.1712 75.3899 22.9625C74.9047 22.7539 74.4947 22.4743 74.16 22.1237C73.8253 21.7731 73.5743 21.3683 73.407 20.9093C73.2397 20.4502 73.156 19.9702 73.156 19.4694C73.156 18.7516 73.2857 18.1215 73.5451 17.5789C73.8044 17.0364 74.16 16.5857 74.6118 16.2267C75.0636 15.8678 75.5907 15.5966 76.1931 15.4129C76.7956 15.2293 77.4398 15.1375 78.1259 15.1375C78.5107 15.1375 78.8496 15.1417 79.1424 15.15C79.4353 15.1584 79.6905 15.1709 79.908 15.1876V14.7118C79.908 13.6601 79.3642 13.1343 78.2765 13.1343C77.5737 13.1343 76.3437 13.4014 74.5867 13.9356C74.0847 13.3513 73.7668 12.4415 73.6329 11.2062C74.0345 11.056 74.4821 10.9141 74.9758 10.7805C75.4694 10.647 75.9756 10.5301 76.4943 10.43C77.0131 10.3298 77.5235 10.2505 78.0255 10.1921C78.5275 10.1336 78.9793 10.1044 79.3809 10.1044C79.9666 10.1044 80.5313 10.1879 81.0752 10.3548C81.619 10.5218 82.0959 10.7763 82.5059 11.1186C82.9158 11.4608 83.2421 11.9031 83.4848 12.4457C83.7274 12.9882 83.8487 13.6351 83.8487 14.3863V19.4694C83.8487 20.2373 84.083 20.7799 84.5516 21.0971ZM76.9713 19.219C76.9713 20.0036 77.4231 20.3959 78.3267 20.3959C78.7952 20.3959 79.3223 20.1539 79.908 19.6698V17.6666C79.5733 17.6499 79.293 17.6373 79.0671 17.629C78.8412 17.6206 78.6697 17.6165 78.5526 17.6165C77.4984 17.6165 76.9713 18.1507 76.9713 19.219ZM86.0325 12.2078C86.1161 11.8739 86.2751 11.5025 86.5094 11.0935C86.7436 10.6845 86.9779 10.3882 87.2122 10.2046C88.7517 10.3214 89.8226 11.081 90.425 12.4832C91.0609 10.9808 92.1068 10.2296 93.5626 10.2296C93.9976 10.2296 94.5499 10.2964 95.2192 10.43C95.2192 10.9474 95.1313 11.5609 94.9556 12.2704C94.7799 12.9799 94.5415 13.585 94.2403 14.0858C93.9558 13.9857 93.5291 13.9022 92.9602 13.8354C92.1235 13.8354 91.4374 14.2611 90.9019 15.1125V22.8999C90.3497 23.0001 89.7013 23.0502 88.9567 23.0502C88.212 23.0502 87.5552 23.0001 86.9863 22.8999V14.812C86.9863 13.56 86.6683 12.6919 86.0325 12.2078ZM102.147 22.8499L103.477 5.82257C104.213 5.68902 105.084 5.62224 106.088 5.62224C107.092 5.62224 107.97 5.68902 108.723 5.82257L110.204 11.9574C110.79 14.7285 111.099 16.2393 111.133 16.4897H111.309C111.375 16.0723 111.685 14.5616 112.237 11.9574L113.743 5.82257C114.48 5.68902 115.35 5.62224 116.354 5.62224C117.358 5.62224 118.236 5.68902 118.989 5.82257L120.32 22.8499C119.801 22.9834 119.161 23.0502 118.399 23.0502C117.638 23.0502 117.015 23.0085 116.529 22.925L116.128 15.9638C116.011 13.1927 115.944 11.2646 115.927 10.1796H115.776L113.291 20.3709C112.689 20.4711 111.999 20.5211 111.221 20.5211C110.443 20.5211 109.752 20.4711 109.15 20.3709L106.69 10.1796H106.514C106.514 11.6653 106.447 13.5934 106.314 15.9638L105.937 22.925C105.452 23.0085 104.828 23.0502 104.067 23.0502C103.306 23.0502 102.666 22.9834 102.147 22.8499ZM132.945 17.917H126.394C126.427 18.6682 126.62 19.2524 126.971 19.6698C127.323 20.0871 127.9 20.2958 128.703 20.2958C129.105 20.2958 129.569 20.2373 130.096 20.1205C130.623 20.0036 131.23 19.8117 131.916 19.5446C132.468 20.1121 132.811 20.88 132.945 21.8483C131.606 22.7998 129.966 23.2755 128.025 23.2755C126.971 23.2755 126.088 23.1086 125.377 22.7747C124.666 22.4409 124.089 21.9735 123.645 21.3725C123.202 20.7715 122.888 20.0621 122.704 19.2441C122.52 18.4261 122.428 17.533 122.428 16.5648C122.428 15.63 122.541 14.7661 122.767 13.9731C122.993 13.1802 123.336 12.4916 123.796 11.9073C124.256 11.3231 124.842 10.864 125.553 10.5301C126.264 10.1962 127.097 10.0293 128.05 10.0293C128.854 10.0293 129.577 10.1629 130.222 10.43C130.866 10.697 131.414 11.0643 131.866 11.5317C132.317 11.9991 132.665 12.5584 132.907 13.2094C133.15 13.8605 133.271 14.5699 133.271 15.3378C133.271 16.3561 133.163 17.2158 132.945 17.917ZM126.369 15.2126H129.682V14.9372C129.682 14.3195 129.544 13.8104 129.268 13.4097C128.992 13.0091 128.578 12.8088 128.025 12.8088C127.49 12.8088 127.092 12.9966 126.833 13.3722C126.574 13.7478 126.419 14.3613 126.369 15.2126ZM142.985 10.3799C143.086 10.8473 143.136 11.3147 143.136 11.7821C143.136 12.2495 143.086 12.7086 142.985 13.1593L139.998 13.1092V18.8685C139.998 19.6531 140.366 20.0454 141.103 20.0454H142.508C142.726 20.6463 142.835 21.1972 142.835 21.698C142.835 22.1988 142.801 22.5577 142.734 22.7747C141.496 22.9417 140.358 23.0251 139.32 23.0251C137.212 23.0251 136.158 21.865 136.158 19.5446V13.1343L134.2 13.1593C134.083 12.742 134.024 12.2871 134.024 11.7946C134.024 11.3022 134.083 10.8306 134.2 10.3799L136.158 10.43V8.97762C136.158 8.12626 136.321 7.52112 136.647 7.16221C136.974 6.8033 137.522 6.62385 138.291 6.62385H139.822L139.998 6.79913V10.43L142.985 10.3799ZM144.315 12.2078C144.399 11.8739 144.558 11.5025 144.792 11.0935C145.027 10.6845 145.261 10.3882 145.495 10.2046C147.035 10.3214 148.106 11.081 148.708 12.4832C149.344 10.9808 150.39 10.2296 151.846 10.2296C152.281 10.2296 152.833 10.2964 153.502 10.43C153.502 10.9474 153.414 11.5609 153.239 12.2704C153.063 12.9799 152.824 13.585 152.523 14.0858C152.239 13.9857 151.812 13.9022 151.243 13.8354C150.406 13.8354 149.72 14.2611 149.185 15.1125V22.8999C148.633 23.0001 147.984 23.0502 147.24 23.0502C146.495 23.0502 145.838 23.0001 145.269 22.8999V14.812C145.269 13.56 144.951 12.6919 144.315 12.2078ZM160.053 13.2845V22.8999C159.769 22.95 159.459 22.9876 159.125 23.0126C158.79 23.0377 158.447 23.0502 158.096 23.0502C157.744 23.0502 157.397 23.0377 157.054 23.0126C156.711 22.9876 156.397 22.95 156.113 22.8999V14.6117C156.113 13.6434 155.719 13.1593 154.933 13.1593H154.556C154.456 12.8422 154.406 12.3998 154.406 11.8322C154.406 11.2813 154.456 10.8139 154.556 10.43C154.991 10.3966 155.393 10.3674 155.761 10.3423C156.129 10.3173 156.464 10.3048 156.765 10.3048H157.317C158.171 10.3048 158.84 10.5718 159.325 11.106C159.811 11.6402 160.053 12.3664 160.053 13.2845ZM155.661 5.37184C156.146 5.10475 156.774 4.9712 157.543 4.9712C158.33 4.9712 158.941 5.10475 159.376 5.37184C159.576 5.82257 159.677 6.30667 159.677 6.82417C159.677 7.34167 159.576 7.82578 159.376 8.2765C158.89 8.5269 158.254 8.6521 157.468 8.6521C156.682 8.6521 156.079 8.5269 155.661 8.2765C155.46 7.82578 155.36 7.34167 155.36 6.82417C155.36 6.30667 155.46 5.82257 155.661 5.37184ZM169.265 15.9388V15.6133C169.265 14.6784 169.165 13.9982 168.964 13.5725C168.763 13.1468 168.387 12.934 167.834 12.934C167.249 12.934 166.839 13.2219 166.605 13.7979C166.37 14.3738 166.253 15.3295 166.253 16.6649C166.253 17.3327 166.299 17.8919 166.391 18.3426C166.483 18.7934 166.617 19.1564 166.793 19.4319C166.968 19.7073 167.19 19.9076 167.458 20.0328C167.726 20.158 168.044 20.2207 168.412 20.2207C168.797 20.2207 169.223 20.1372 169.692 19.9702C170.16 19.8033 170.662 19.5362 171.198 19.169C171.348 19.2524 171.503 19.3735 171.662 19.532C171.821 19.6906 171.968 19.8701 172.101 20.0704C172.235 20.2707 172.352 20.4836 172.453 20.7089C172.553 20.9343 172.629 21.1471 172.679 21.3475C172.127 21.9317 171.407 22.3991 170.52 22.7497C169.633 23.1003 168.73 23.2755 167.809 23.2755C166.019 23.2755 164.647 22.6913 163.693 21.5227C162.739 20.3542 162.262 18.6932 162.262 16.5397C162.262 15.438 162.417 14.4781 162.727 13.6601C163.036 12.8422 163.446 12.1661 163.956 11.6319C164.467 11.0977 165.052 10.697 165.713 10.43C166.374 10.1629 167.065 10.0293 167.784 10.0293C168.521 10.0293 169.194 10.1295 169.805 10.3298C170.416 10.5301 170.943 10.8139 171.386 11.1812C171.83 11.5484 172.173 11.9866 172.415 12.4958C172.658 13.0049 172.779 13.5683 172.779 14.186C172.779 14.8871 172.574 15.3796 172.164 15.6633C171.754 15.9471 171.248 16.089 170.646 16.089C170.144 16.089 169.683 16.0389 169.265 15.9388ZM173.934 22.0486C173.951 21.6146 174.063 21.1388 174.273 20.6213C174.482 20.1038 174.729 19.6948 175.013 19.3943C176.352 20.0955 177.515 20.446 178.502 20.446C178.971 20.446 179.33 20.3667 179.581 20.2081C179.832 20.0495 179.958 19.8367 179.958 19.5696C179.958 19.0688 179.573 18.6932 178.803 18.4428L177.423 17.917C175.331 17.1491 174.285 15.8971 174.285 14.1609C174.285 12.8922 174.724 11.8865 175.603 11.1436C176.481 10.4007 177.665 10.0293 179.155 10.0293C179.891 10.0293 180.703 10.1336 181.589 10.3423C182.476 10.551 183.204 10.7972 183.773 11.081C183.807 11.5484 183.715 12.0617 183.497 12.621C183.279 13.1802 183.012 13.5767 182.694 13.8104C181.288 13.176 180.117 12.8588 179.18 12.8588C178.845 12.8588 178.59 12.934 178.414 13.0842C178.239 13.2344 178.151 13.4264 178.151 13.6601C178.151 14.0608 178.469 14.3779 179.104 14.6117L180.661 15.1625C182.886 15.9471 183.999 17.291 183.999 19.194C183.999 20.446 183.539 21.4393 182.619 22.1738C181.698 22.9083 180.385 23.2755 178.678 23.2755C176.971 23.2755 175.39 22.8666 173.934 22.0486Z" fill="white"/>
</g>
<defs>
<clipPath id="clip0_2318_38">
<rect width="184" height="28" fill="white"/>
</clipPath>
</defs>
</svg>
